# Blender v2.82 (sub 7) OBJ File: ''
# www.blender.org
mtllib stone.mtl
o stone
v 4.579695 0.713727 -10.034723
v 4.564489 0.181565 -9.963724
v 4.598316 0.181565 -10.609514
v 4.583712 0.672632 -10.680092
v 2.822190 0.518283 -10.943731
v 2.845960 0.181565 -10.963703
v 2.879703 0.181565 -10.390292
v 2.881528 0.559073 -10.380244
v 4.416624 0.774350 -9.874453
v 4.475636 0.717440 -9.850424
v 4.522773 0.770563 -10.062458
v 4.176300 0.181565 -11.333672
v 4.144250 0.419745 -11.326771
v 2.974969 0.508617 -11.280185
v 3.015348 0.181565 -11.288891
v 4.118306 0.484567 -11.267795
v 4.526532 0.732067 -10.667050
v 3.661632 0.383348 -11.412112
v 3.628444 0.474862 -11.329203
v 2.871087 0.585996 -10.930645
v 3.004026 0.577585 -11.223401
v 2.931428 0.627480 -10.357510
v 3.562319 0.375856 -11.408158
v 3.661301 0.181565 -11.414668
v 3.592756 0.672012 -10.973382
v 3.551913 0.469087 -11.326154
v 4.250747 0.762382 -9.859172
v 4.165942 0.757743 -9.828443
v 4.297137 0.181565 -9.786778
v 4.285068 0.643094 -9.780981
v 4.494980 0.181565 -9.853306
v -7.363958 0.690962 3.055500
v -7.325421 0.160047 3.164507
v -7.289167 0.135007 2.516114
v -7.321477 0.530296 2.427238
v -7.436520 0.846968 3.303683
v -7.357577 0.782931 3.337577
v -7.339869 0.783222 3.053275
v -7.702520 0.166181 1.655184
v -7.796714 0.421660 1.779902
v -7.780894 0.512412 1.763859
v -7.334575 0.644430 2.409309
v -8.098796 0.401983 1.710484
v -8.275107 0.147871 1.760445
v -8.329837 0.661165 2.050067
v -8.140275 0.566536 1.699806
v -8.592480 0.600654 2.581660
v -8.353520 0.671272 2.093725
v -8.682762 0.149111 2.490164
v -7.732556 0.786106 3.335863
v -7.648934 0.828322 3.298299
v -7.591024 0.687233 3.448482
v -7.587618 0.162833 3.355945
v -7.372401 0.151000 3.271229
v -8.415543 0.726851 3.050664
v -8.528565 0.153078 2.949828
v -4.332380 0.569235 -5.378012
v -4.291068 0.098006 -5.486786
v -4.501184 0.098006 -4.472074
v -4.495132 0.884898 -4.356758
v -2.793369 0.617187 -6.636736
v -2.692400 0.098006 -6.668865
v -3.451957 0.098006 -6.455986
v -3.540611 0.973200 -6.386017
v -1.768853 0.637572 -3.512227
v -1.811328 0.098006 -3.486353
v -1.595906 0.098006 -5.795670
v -1.660350 0.897244 -5.823048
v -2.158467 0.098005 -3.012332
v -2.092385 0.467733 -3.016322
v -2.844793 0.402213 -3.098017
v -4.008221 0.098006 -3.222749
v -3.955779 0.763465 -3.225920
v -2.680350 0.828772 -3.893827
v -2.706492 0.776740 -3.178763
v -2.124640 0.578245 -3.113313
v -3.900368 0.867328 -3.313050
v -4.401408 0.980132 -4.363548
v -2.844733 0.679159 -3.100946
v -2.793134 0.783314 -3.188507
v -1.843131 0.746073 -3.544811
v -1.738988 0.999029 -5.762479
v -2.795700 0.709710 -6.521352
v -3.487970 1.063399 -6.289071
v -4.248924 0.660308 -5.320298
v -2.732322 0.670635 -3.088300
v 7.034512 0.672398 3.650884
v 7.069598 0.188823 3.750167
v 7.102624 0.166016 3.159592
v 7.073193 0.657569 3.078638
v 6.968406 0.814494 3.876939
v 7.040317 0.756172 3.907809
v 7.056445 0.756440 3.648855
v 6.726118 0.194412 2.375425
v 6.640319 0.558615 2.489020
v 6.654737 0.641276 2.474410
v 7.061257 0.761522 3.062311
v 6.365181 0.540693 2.425788
v 6.204597 0.177738 2.471296
v 6.154739 0.776769 2.735101
v 6.327403 0.690574 2.416063
v 5.915523 0.721650 3.219287
v 6.133173 0.785973 2.774863
v 5.833271 0.178865 3.135957
v 6.698771 0.759063 3.906240
v 6.774947 0.797513 3.872034
v 6.827678 0.669006 4.008826
v 6.830785 0.191356 3.924539
v 7.026809 0.180583 3.847381
v 6.076672 0.705089 3.646479
v 5.973734 0.182481 3.554631
v 2.681406 0.464848 6.807520
v 2.515011 0.309304 6.914674
v 2.537944 -0.187037 6.714188
v 3.084560 0.016565 5.461946
v 2.320757 -0.077161 4.502002
v 3.041561 0.350063 5.795552
v 1.699953 0.482403 4.590556
v 2.788283 0.445409 5.623563
v 2.946499 0.449712 6.561119
v 2.999321 -0.110480 6.313303
v 1.680513 -0.138838 4.447991
v 1.563706 0.492749 4.926276
v 2.450994 -0.289226 4.413794
v 2.203130 0.373005 6.757930
v 1.601664 0.260439 6.305986
v 1.580261 -0.264298 6.009454
v 2.150123 0.485011 6.474592
v 1.288422 0.513100 5.558676
v 1.801723 0.140679 4.242377
v 1.245743 -0.303899 5.436021
vt 0.311166 1.008008
vt 0.223846 0.913693
vt 0.304423 0.902112
vt 0.874048 0.835825
vt 0.818797 0.745013
vt 0.880740 0.743365
vt 0.311775 1.038249
vt 0.320492 1.003457
vt 0.321113 1.034306
vt 0.262927 0.796001
vt 0.872461 0.891032
vt 0.818797 0.839102
vt 0.319672 0.509236
vt 0.416105 0.585602
vt 0.317532 0.518618
vt 0.439786 0.660536
vt 0.425783 0.581345
vt 0.883778 0.881715
vt 0.885158 0.833678
vt 0.595268 0.800785
vt 0.595268 0.991280
vt 0.595268 0.885289
vt 0.314175 0.904252
vt 0.545069 1.055420
vt 0.531046 1.007294
vt 0.603454 1.087769
vt 0.523951 1.007294
vt 0.509427 1.054472
vt 0.451542 1.087769
vt 0.425681 0.678540
vt 0.418138 0.773208
vt 0.408821 0.768440
vt 0.184970 0.563871
vt 0.187478 0.536653
vt 0.218327 0.519235
vt 0.367797 0.671838
vt 0.360784 0.790254
vt 0.266741 0.780352
vt -0.048351 0.547626
vt 0.027379 0.549607
vt 0.046191 0.569153
vt 0.179928 0.577786
vt 0.048916 0.528020
vt 0.039578 0.518337
vt -0.048351 0.515163
vt 0.223846 1.019658
vt 0.147235 0.744935
vt 0.056011 0.656429
vt 0.120872 0.641846
vt 0.162326 0.791220
vt 0.162374 0.744570
vt 0.172834 0.785658
vt 0.103047 0.535628
vt 0.117938 0.532995
vt 0.139600 0.638904
vt 0.371461 1.014773
vt 0.329765 1.006576
vt 0.413990 0.959053
vt 0.398462 1.016526
vt 0.415648 0.951889
vt 0.329969 0.886839
vt 0.404061 0.871826
vt 0.587982 0.527715
vt 0.636557 0.532996
vt 0.601703 0.533879
vt 0.611205 0.509236
vt 0.649511 0.527434
vt 0.690439 0.839090
vt 0.602451 0.803217
vt 0.706142 0.800785
vt 0.058635 0.780333
vt 0.652416 0.574084
vt 0.580050 0.785659
vt 0.489976 0.738696
vt 0.653285 0.679750
vt 0.790826 1.009334
vt 0.772706 0.957170
vt 0.787598 0.959766
vt 0.829518 0.944310
vt 0.486091 0.731533
vt 0.446880 0.651470
vt 0.475913 0.574513
vt 0.330620 0.811415
vt 0.604393 0.838531
vt 0.706663 0.862314
vt 0.696940 0.974382
vt 0.603151 0.264211
vt 0.525828 0.115559
vt 0.654946 0.096637
vt 1.022538 0.798051
vt 0.914473 0.883241
vt 0.899927 0.739634
vt 0.001158 0.428522
vt -0.087377 0.053841
vt 0.043767 0.049349
vt 0.660379 0.456550
vt 0.721046 0.445706
vt 0.710295 0.569166
vt 0.525828 -0.089438
vt 0.635021 -0.088917
vt 0.669436 0.429610
vt 0.525828 0.282059
vt -0.087377 -0.089438
vt -0.002186 -0.084166
vt -0.026710 0.509893
vt -0.087377 0.432768
vt 0.350749 0.054548
vt 0.346459 -0.062784
vt 0.441933 -0.073523
vt 0.652063 -0.074621
vt 0.670573 0.097751
vt 0.323776 -0.075552
vt 0.150561 -0.040749
vt 0.141469 -0.055046
vt -0.008576 0.493978
vt 0.060469 0.059287
vt 0.018962 0.423176
vt 0.518116 0.371106
vt 0.331821 0.485688
vt 0.505213 0.361168
vt 0.209592 0.463482
vt 0.332204 0.504621
vt 0.618094 0.254740
vt 0.684236 0.413702
vt 0.218229 0.447574
vt 0.979786 1.003590
vt 0.917252 1.018438
vt 0.987245 0.887857
vt 0.994339 0.889451
vt 1.055794 0.902701
vt 1.064331 1.020032
vt 0.342221 -0.077628
vt 0.068347 0.131623
vt 0.332242 -0.061185
vt 0.093368 0.288612
vt 0.488124 -0.002720
vt 0.755738 0.569156
vt 0.769572 0.751463
vt 0.660379 0.760068
vt 0.754340 0.550711
vt 0.192002 1.005120
vt 0.108912 0.924506
vt 0.189569 0.911223
vt 0.205748 1.047278
vt 0.205792 1.004787
vt 0.215318 1.042213
vt 0.173332 0.814475
vt 0.186895 0.812077
vt 0.206626 0.908544
vt 0.492987 1.001083
vt 0.433431 0.993616
vt 0.531723 0.950329
vt 0.517580 1.002679
vt 0.533234 0.943805
vt 0.433616 0.884554
vt 0.522679 0.870881
vt 0.041143 0.812668
vt 0.085387 0.817476
vt 0.053643 0.818281
vt 0.062295 0.795835
vt 0.097186 0.812411
vt 0.795274 0.799575
vt 0.715131 0.766900
vt 0.809577 0.764684
vt 0.111302 1.037363
vt 0.099833 0.854902
vt 0.033918 1.047611
vt -0.048125 1.004836
vt 0.100622 0.951145
vt 0.635143 1.056767
vt 0.618638 1.009255
vt 0.632202 1.011621
vt 0.691962 0.997543
vt -0.051663 0.998311
vt -0.087377 0.925388
vt -0.060934 0.855291
vt 0.434209 0.815856
vt 0.716899 0.799065
vt 0.810051 0.820726
vt 0.801195 0.922804
vt 0.816328 0.331466
vt 0.790806 0.349049
vt 0.709363 0.316152
vt 0.742771 0.110676
vt 0.727392 -0.046837
vt 0.797494 0.165416
vt 0.819209 -0.032306
vt 0.813138 0.137195
vt 1.048733 0.411677
vt 1.064331 0.537296
vt 1.022772 0.565517
vt 0.721925 0.250372
vt 0.956832 0.266198
vt 0.854895 0.289591
vt 0.958530 0.211111
vt 0.692595 -0.061311
vt 0.846987 -0.082260
vt 0.920411 -0.015280
vt 0.834309 0.033377
vt 0.885481 1.023501
vt 0.875361 0.918446
vt 0.910158 0.897076
vt 0.918059 0.425875
vt 0.776666 0.576164
vt 0.828064 0.453541
vt 0.813844 0.291035
vt 0.763137 -0.089438
vt 0.961869 0.107343
vt 0.900760 0.323329
vt 0.926757 0.379383
vt 1.005235 0.371246
vt 0.821836 0.679932
vt 0.844192 0.735019
vt 0.839617 1.003612
vt 0.756731 0.997543
vt 0.752968 1.078985
vt 0.701793 1.089438
vt 0.827811 0.127469
vt 0.223846 0.794869
vt 0.818797 0.892461
vt 0.426182 0.665982
vt 0.891965 0.739634
vt 0.541604 0.997906
vt 0.563388 0.901530
vt 0.562158 0.885234
vt 0.556187 0.806044
vt 0.531465 1.040404
vt 0.522883 1.039174
vt 0.439137 0.676832
vt 0.013592 0.779908
vt -0.048351 0.780207
vt 0.024817 0.771720
vt 0.223846 1.037776
vt 0.060120 0.762822
vt 0.061126 0.515163
vt 0.521081 0.796169
vt 0.763825 1.016139
vt 0.832522 1.038264
vt 0.424768 0.794869
vt 0.602792 0.992928
vt 1.039106 0.883241
vt 0.525828 0.441091
vt -0.087377 0.510548
vt 0.962695 1.017957
vt 1.038383 0.887857
vt 0.447225 -0.089438
vt 0.112654 1.021411
vt 0.113571 0.795835
vt -0.019793 1.057185
vt 0.610549 1.062966
vt 0.694698 1.083117
vt 0.519962 0.800785
vt 0.715443 0.939695
vt 0.938882 -0.089438
vt 0.977932 0.353664
vn 0.9995 0.0001 0.0323
vn 0.9997 0.0077 0.0252
vn 0.9995 0.0303 0.0043
vn -0.9961 -0.0463 0.0754
vn -0.9957 -0.0239 0.0890
vn -0.9945 0.0020 0.1046
vn 0.5883 0.7439 0.3171
vn 0.5882 0.7439 0.3171
vn 0.8425 -0.0199 -0.5384
vn 0.8539 0.0701 -0.5157
vn 0.8360 -0.0550 -0.5460
vn -0.8964 -0.0699 -0.4377
vn -0.8982 -0.0662 -0.4346
vn -0.9102 -0.0398 -0.4122
vn 0.6099 0.6293 -0.4817
vn 0.5518 0.6972 -0.4576
vn 0.6106 0.6244 -0.4871
vn 0.0771 0.6850 -0.7245
vn 0.0761 0.6871 -0.7226
vn 0.0759 0.6875 -0.7222
vn -0.7271 0.5922 -0.3472
vn -0.8140 0.5792 0.0438
vn -0.8139 0.5793 0.0438
vn 0.1814 -0.0088 -0.9834
vn -0.1836 -0.0287 -0.9826
vn 0.0435 -0.6707 -0.7404
vn 0.7157 0.6973 -0.0399
vn -0.9888 -0.0437 -0.1428
vn -0.9752 -0.0196 -0.2205
vn -0.9943 -0.0590 -0.0886
vn 0.9563 0.2538 -0.1454
vn 0.9579 0.2522 -0.1374
vn 0.9599 0.2492 -0.1281
vn -0.2127 0.6557 -0.7244
vn -0.2149 0.6406 -0.7372
vn -0.2135 0.6382 -0.7397
vn -0.0644 0.9962 -0.0594
vn -0.0777 0.9949 -0.0639
vn -0.0776 0.9949 -0.0638
vn -0.0929 0.9829 -0.1587
vn -0.1670 0.9857 0.0213
vn -0.2337 0.9521 0.1972
vn -0.0273 0.9959 -0.0867
vn -0.0338 0.9946 -0.0979
vn -0.0182 0.9979 -0.0619
vn -0.1019 0.9940 -0.0388
vn -0.1216 0.9908 -0.0589
vn -0.1058 0.9935 -0.0418
vn -0.3911 -0.0225 0.9201
vn -0.3880 -0.0217 0.9214
vn -0.3907 -0.0224 0.9202
vn -0.0776 0.9949 -0.0639
vn 0.1238 0.4903 0.8627
vn 0.1254 0.4891 0.8632
vn 0.1226 0.4912 0.8624
vn 0.3352 0.0048 0.9421
vn 0.3244 -0.0007 0.9459
vn 0.3399 0.0072 0.9404
vn 0.8668 0.0386 0.4972
vn 0.8517 0.0306 0.5231
vn 0.8704 0.0406 0.4906
vn 0.9953 0.0763 0.0595
vn 0.9953 0.0779 0.0578
vn 0.9952 0.0814 0.0541
vn 0.7665 0.6405 0.0484
vn 0.9969 -0.0485 0.0620
vn 0.6192 0.7842 0.0394
vn 0.8359 0.0019 -0.5488
vn 0.8468 0.3001 -0.4391
vn 0.8068 -0.1173 -0.5790
vn 0.8222 -0.0136 -0.5690
vn 0.8053 -0.2166 -0.5519
vn 0.8220 0.0049 -0.5694
vn 0.9959 0.0861 0.0275
vn 0.9752 -0.2160 0.0482
vn 0.9926 0.1185 0.0262
vn -0.7126 0.2323 -0.6620
vn -0.8785 -0.2479 -0.4084
vn -0.8747 0.1601 -0.4574
vn -0.8792 0.1733 -0.4437
vn -0.8910 0.2103 -0.4023
vn -0.0824 0.7486 0.6579
vn 0.0690 0.6326 0.7714
vn -0.0228 0.6835 0.7296
vn 0.1365 0.5896 0.7961
vn 0.4390 -0.1155 0.8910
vn 0.3862 -0.1437 0.9111
vn 0.4611 -0.1033 0.8813
vn 0.9520 0.1006 0.2892
vn 0.9994 -0.0021 0.0340
vn 0.9996 -0.0218 -0.0155
vn -0.8544 0.1482 -0.4980
vn -0.0068 0.9973 -0.0729
vn -0.0828 0.9866 -0.1404
vn -0.0399 0.9959 -0.0815
vn 0.1326 0.9605 -0.2448
vn 0.1401 0.9627 -0.2316
vn 0.1153 0.9545 -0.2750
vn 0.1821 -0.0496 -0.9820
vn 0.2149 -0.1525 -0.9647
vn 0.2319 -0.2084 -0.9502
vn 0.0166 0.2019 -0.9793
vn -0.0787 0.0449 -0.9959
vn 0.1679 0.4223 -0.8907
vn -0.2154 0.9739 0.0711
vn -0.3926 0.9168 0.0726
vn -0.1473 0.9850 0.0902
vn -0.9361 0.1073 0.3351
vn -0.9360 0.1075 0.3353
vn -0.9372 0.1050 0.3327
vn -0.4424 -0.0815 0.8931
vn -0.4862 -0.0850 0.8697
vn -0.3895 -0.0748 0.9180
vn -0.9819 -0.0141 -0.1890
vn -0.9843 0.0114 -0.1762
vn -0.9856 0.0310 -0.1662
vn -0.2900 0.0196 -0.9568
vn -0.2935 0.0245 -0.9556
vn -0.3044 0.0393 -0.9517
vn 0.9955 -0.0415 0.0853
vn 0.9963 0.0610 0.0611
vn 0.9949 0.0836 0.0557
vn -0.1142 0.0220 0.9932
vn -0.1131 0.0146 0.9935
vn -0.1161 0.0163 0.9931
vn -0.9217 -0.0116 0.3877
vn -0.9106 0.0304 0.4121
vn -0.8971 0.0728 0.4357
vn -0.7660 -0.0037 -0.6429
vn -0.7831 0.0335 -0.6210
vn -0.7969 0.0664 -0.6005
vn 0.6159 0.0449 -0.7866
vn 0.5844 0.1048 -0.8047
vn 0.5605 0.1469 -0.8150
vn 0.8151 -0.0815 0.5736
vn 0.8233 -0.0631 0.5640
vn 0.8376 -0.0279 0.5456
vn 0.0671 0.9949 0.0749
vn 0.0670 0.9949 0.0749
vn -0.6458 0.6626 0.3792
vn -0.6458 0.6627 0.3792
vn -0.0355 0.6533 0.7562
vn 0.6848 0.5632 0.4625
vn 0.6492 0.6207 0.4396
vn 0.6405 0.6297 0.4395
vn 0.8065 0.5857 0.0809
vn 0.8157 0.5731 0.0790
vn 0.8060 0.5863 0.0808
vn 0.5061 0.6439 -0.5738
vn 0.4469 0.7394 -0.5036
vn 0.5015 0.6385 -0.5837
vn -0.1978 0.7341 -0.6496
vn -0.1623 0.7983 -0.5800
vn -0.1464 0.8048 -0.5752
vn -0.5483 0.7224 -0.4214
vn -0.5138 0.7663 -0.3857
vn -0.5544 0.7183 -0.4204
vn -0.6722 0.7377 -0.0627
vn -0.7507 0.6576 -0.0640
vn -0.7548 0.6516 -0.0748
vn 0.9700 -0.0767 0.2306
vn 0.9680 -0.0743 0.2395
vn 0.9837 -0.0975 0.1510
vn -0.9353 0.3523 0.0320
vn -0.9354 0.3522 0.0312
vn -0.9387 0.3446 -0.0092
vn -0.0391 0.6342 0.7722
vn -0.0347 0.6723 0.7395
vn -0.0364 0.6278 0.7775
vn 0.0671 0.9949 0.0748
vn -0.1110 0.0105 0.9938
vn -0.1124 0.0222 0.9934
vn -0.1130 0.0249 0.9933
vn -0.1108 0.0159 0.9937
vn -0.1109 0.0105 0.9938
vn -0.1101 0.0134 0.9938
vn 0.9953 0.0774 0.0582
vn 0.9953 0.0760 0.0596
vn 0.9954 0.0704 0.0655
vn 0.7664 0.6405 0.0484
vn 0.9969 -0.0483 0.0620
vn 0.6192 0.7843 0.0394
vn 0.8404 0.0720 -0.5372
vn 0.8582 0.2122 -0.4674
vn 0.8090 -0.0481 -0.5859
vn 0.8222 -0.0135 -0.5690
vn 0.8053 -0.2167 -0.5519
vn 0.9754 -0.2107 0.0652
vn 0.9964 0.0836 0.0148
vn 0.9933 0.1155 0.0091
vn -0.7126 0.2323 -0.6621
vn -0.8768 0.1644 -0.4518
vn -0.8771 0.1649 -0.4511
vn -0.8914 0.1977 -0.4079
vn -0.0824 0.7485 0.6579
vn 0.9520 0.1006 0.2891
vn -0.8546 0.1481 -0.4978
vn 0.0287 0.9942 -0.1032
vn -0.0772 0.9587 -0.2738
vn 0.1089 0.9930 -0.0455
vn 0.2149 -0.1525 -0.9646
vn 0.2319 -0.2084 -0.9501
vn -0.0214 0.1220 -0.9923
vn -0.0259 0.1173 -0.9928
vn 0.1906 0.3329 -0.9235
vn -0.1425 0.9864 0.0823
vn -0.1209 0.9891 0.0839
vn -0.1542 0.9834 0.0957
vn -0.9371 0.1058 0.3327
vn -0.9348 0.1093 0.3379
vn -0.9441 0.0946 0.3159
vn 0.6778 -0.2482 0.6921
vn 0.5920 0.6068 -0.5303
vn 0.5896 0.6095 -0.5300
vn 0.5907 0.6084 -0.5301
vn 0.5251 0.6664 -0.5294
vn 0.3930 0.9168 -0.0705
vn 0.9943 0.0249 0.1033
vn -0.9172 0.1162 -0.3812
vn -0.9189 0.1154 -0.3773
vn -0.9192 0.1152 -0.3766
vn 0.6013 0.5923 -0.5363
vn 0.5894 0.6099 -0.5298
vn -0.5168 -0.3829 0.7657
vn -0.5188 -0.3931 0.7591
vn -0.5209 -0.4038 0.7521
vn 0.0382 0.4037 -0.9141
vn -0.4534 0.7693 0.4501
vn 0.6550 -0.2488 0.7135
vn 0.6561 -0.2498 0.7121
vn 0.6582 -0.2518 0.7095
vn 0.5365 0.6753 -0.5060
vn -0.8991 -0.0889 0.4287
vn -0.9018 -0.0940 0.4218
vn -0.9288 -0.1529 0.3376
vn -0.9167 0.1164 -0.3822
vn -0.2132 0.8589 0.4657
vn -0.2112 0.7858 0.5813
vn -0.2126 0.8945 0.3934
vn 0.0456 0.9989 -0.0123
vn 0.1251 -0.6225 -0.7725
vn -0.4499 0.7986 0.3998
vn -0.4768 -0.3481 0.8072
vn -0.9132 0.1142 -0.3912
vn -0.9136 0.1150 -0.3901
vn -0.9159 0.1206 -0.3829
vn 0.9922 0.0414 0.1178
vn 0.9984 -0.0216 0.0523
vn -0.9956 -0.0738 0.0586
vn 0.8573 0.1285 -0.4986
vn -0.8827 -0.0967 -0.4598
vn 0.5454 0.7009 -0.4597
vn 0.0773 0.6846 -0.7248
vn -0.7272 0.5922 -0.3472
vn -0.1804 0.0878 -0.9797
vn -0.1688 0.0279 -0.9853
vn 0.1951 0.0894 -0.9767
vn 0.1858 0.1311 -0.9738
vn -0.9071 0.0484 -0.4181
vn 0.9505 0.2583 -0.1724
vn -0.2111 0.6575 -0.7233
vn -0.0520 0.9971 -0.0552
vn -0.0466 0.9975 -0.0534
vn -0.0496 0.9669 -0.2504
vn -0.0541 0.9918 -0.1158
vn -0.0761 0.9964 -0.0365
vn -0.0690 0.9968 -0.0401
vn -0.3886 -0.0226 0.9211
vn -0.3915 -0.0223 0.9199
vn -0.3911 -0.0223 0.9201
vn 0.1261 0.4885 0.8634
vn 0.3187 -0.0036 0.9478
vn 0.8460 0.0277 0.5325
vn 0.9953 0.0732 0.0626
vn 0.9662 -0.2508 0.0599
vn 0.8217 0.4283 -0.3760
vn 0.8017 -0.2368 -0.5488
vn 0.9664 -0.2518 0.0518
vn -0.8644 0.1306 -0.4856
vn -0.0684 0.7055 0.7054
vn 0.3539 -0.1603 0.9214
vn 0.9003 0.1493 0.4090
vn 0.0553 0.9978 -0.0374
vn 0.0753 0.9964 -0.0398
vn 0.0745 0.9965 -0.0376
vn 0.1759 0.9702 -0.1669
vn 0.1724 -0.0204 -0.9848
vn -0.1733 -0.1320 -0.9760
vn -0.1918 0.8046 0.5620
vn -0.1441 0.9339 0.3273
vn -0.9349 0.1094 0.3376
vn -0.3942 -0.0832 0.9153
vn -0.6723 -0.1329 0.7283
vn -0.9786 -0.0401 -0.2018
vn -0.2762 0.0004 -0.9611
vn 0.9931 -0.0723 0.0923
vn -0.9292 -0.0466 0.3666
vn -0.7548 -0.0262 -0.6555
vn 0.6318 0.0125 -0.7751
vn 0.7941 -0.1237 0.5951
vn 0.6872 0.5536 0.4703
vn 0.8160 0.5727 0.0788
vn 0.4353 0.7457 -0.5044
vn -0.1893 0.7266 -0.6605
vn -0.5150 0.7687 -0.3793
vn -0.6638 0.7443 -0.0730
vn 0.8588 0.0052 0.5123
vn -0.9096 0.3746 0.1797
vn -0.0307 0.6778 0.7346
vn 0.9952 0.0830 0.0524
vn 0.9662 -0.2507 0.0599
vn 0.8567 0.3264 -0.3995
vn 0.9655 -0.2503 0.0717
vn -0.8643 0.1396 -0.4831
vn -0.0684 0.7056 0.7053
vn 0.9003 0.1493 0.4089
vn 0.0576 0.9979 -0.0281
vn 0.0822 0.9798 -0.1822
vn 0.0663 0.9893 -0.1298
vn 0.1725 -0.0204 -0.9848
vn -0.1793 -0.0439 -0.9828
vn -0.2512 0.8718 0.4205
vn -0.2084 0.9432 0.2586
vn -0.9273 0.1204 0.3545
vn -0.6723 -0.1329 0.7282
vn -0.5137 -0.3677 0.7752
vn 0.6523 -0.2462 0.7169
vn -0.8624 -0.0308 0.5052
vn -0.2049 0.6944 0.6898
vn -0.9103 0.1076 -0.3997
usemtl lambert4SG
s 1
f 1/1/1 3/2/2 4/3/3
f 5/4/4 7/5/5 8/6/6
f 10/7/7 11/8/8 9/9/7
f 3/2/9 13/10/10 4/3/11
f 14/11/12 6/12/13 5/4/14
f 4/13/15 16/14/16 17/15/17
f 18/16/18 16/14/19 13/17/20
f 5/4/21 21/18/21 14/11/21
f 8/6/22 20/19/23 5/4/23
f 12/20/24 15/21/25 24/22/26
f 11/8/27 4/3/27 17/23/27
f 19/24/28 24/25/29 25/26/30
f 24/27/31 26/28/32 25/29/33
f 26/30/34 14/31/35 21/32/36
f 27/33/37 9/34/38 11/35/39
f 25/36/40 21/32/41 20/37/42
f 16/14/43 25/36/44 17/15/45
f 25/36/46 20/37/47 22/38/48
f 29/39/49 30/40/50 28/41/51
f 28/42/52 9/34/52 27/33/52
f 9/43/53 30/40/54 10/44/55
f 30/40/56 31/45/57 10/44/58
f 10/7/59 2/46/60 1/1/61
f 32/47/62 34/48/63 35/49/64
f 37/50/65 38/51/66 36/52/67
f 34/48/68 40/53/69 35/49/70
f 35/49/71 41/54/72 42/55/73
f 42/55/74 32/47/75 35/49/76
f 43/56/77 44/57/77 45/58/77
f 45/58/78 46/59/78 43/56/78
f 48/60/79 49/61/80 47/62/81
f 50/63/82 36/64/82 51/65/82
f 36/64/83 52/66/84 37/67/85
f 52/68/86 54/69/87 37/70/88
f 54/71/89 32/47/90 37/50/91
f 44/57/92 48/60/92 45/58/92
f 51/65/93 36/64/94 38/72/95
f 41/73/96 45/74/97 42/75/98
f 43/76/99 41/77/100 40/78/101
f 39/79/102 43/76/103 40/78/104
f 48/80/105 47/81/106 55/82/107
f 56/83/108 47/62/109 49/61/110
f 53/84/111 50/85/112 55/86/113
f 57/87/114 59/88/115 60/89/116
f 61/90/117 63/91/118 64/92/119
f 65/93/120 67/94/121 68/95/122
f 69/96/123 70/97/124 71/98/125
f 60/89/126 72/99/127 73/100/128
f 64/101/129 58/102/130 57/87/131
f 68/95/132 62/103/133 61/104/134
f 70/105/135 66/106/136 65/93/137
f 74/107/138 75/108/139 76/109/139
f 60/89/140 77/110/141 78/111/140
f 79/112/142 77/113/142 73/114/142
f 65/93/143 76/115/144 70/105/145
f 65/93/146 82/116/147 81/117/148
f 68/118/149 83/119/150 82/120/151
f 64/121/152 83/119/153 61/122/154
f 64/101/155 85/123/156 84/124/157
f 85/123/158 60/89/159 78/111/160
f 74/107/138 83/119/139 84/125/139
f 80/126/161 71/127/162 74/128/163
f 71/129/164 75/130/165 74/131/166
f 86/132/167 76/109/168 75/108/169
f 78/133/138 77/113/170 74/107/138
f 77/113/170 80/134/170 74/107/138
f 84/125/139 85/135/139 74/107/138
f 82/120/139 83/119/139 74/107/138
f 76/109/139 81/136/139 74/107/138
f 85/135/139 78/133/138 74/107/138
f 74/107/138 81/136/139 82/120/139
f 79/137/171 73/138/171 71/98/171
f 72/139/172 69/96/173 71/98/174
f 70/97/124 86/140/175 71/98/125
f 71/98/174 73/138/176 72/139/172
f 87/141/177 89/142/178 90/143/179
f 92/144/180 93/145/181 91/146/182
f 89/142/183 95/147/184 90/143/185
f 90/143/186 96/148/187 97/149/73
f 93/145/188 90/143/189 97/149/190
f 98/150/191 99/151/191 100/152/191
f 100/152/78 101/153/78 98/150/78
f 103/154/192 104/155/193 102/156/194
f 105/157/195 91/158/195 106/159/195
f 91/158/83 107/160/84 92/161/85
f 107/162/86 109/163/87 92/164/88
f 109/165/196 87/141/90 92/144/91
f 99/151/197 103/154/197 100/152/197
f 106/159/198 91/158/199 93/166/200
f 96/167/96 100/168/97 97/169/98
f 98/170/99 96/171/201 95/172/202
f 94/173/203 98/170/204 95/172/205
f 103/174/206 102/175/207 110/176/208
f 111/177/209 102/156/210 104/155/211
f 108/178/111 105/179/112 110/180/113
f 112/181/212 113/182/212 114/183/212
f 115/184/213 116/185/214 117/186/215
f 118/187/216 119/188/216 116/185/216
f 120/189/217 117/190/217 119/191/217
f 121/192/218 115/184/218 117/186/218
f 118/193/219 122/194/220 123/195/221
f 115/184/222 124/196/222 116/185/222
f 117/186/215 116/185/214 119/188/223
f 114/197/224 126/198/225 127/199/226
f 122/200/227 116/201/227 124/202/227
f 128/203/228 129/204/228 126/205/228
f 120/206/229 114/183/230 121/192/231
f 130/207/232 118/187/232 116/185/232
f 129/208/233 127/199/234 126/198/235
f 118/193/219 130/209/236 122/194/220
f 125/210/237 112/211/238 128/203/239
f 129/204/240 119/191/240 123/212/240
f 118/213/240 123/212/240 119/191/240
f 122/200/241 130/214/241 116/201/241
f 126/205/242 125/210/242 128/203/242
f 128/203/240 120/189/240 119/191/240
f 114/215/243 113/216/243 125/217/243
f 131/218/244 123/195/245 122/194/246
f 117/186/247 120/206/247 121/192/247
f 1/1/1 2/46/248 3/2/2
f 5/4/4 6/12/249 7/5/5
f 10/7/7 1/1/8 11/8/8
f 3/2/9 12/219/250 13/10/10
f 14/11/12 15/220/251 6/12/13
f 4/13/15 13/17/252 16/14/16
f 18/16/18 19/221/253 16/14/19
f 5/4/21 20/19/254 21/18/21
f 8/6/22 22/222/22 20/19/23
f 15/21/25 14/223/255 23/224/256
f 24/22/26 18/225/257 13/226/258
f 15/21/25 23/224/256 24/22/26
f 24/22/26 13/226/258 12/20/24
f 11/8/27 1/1/27 4/3/27
f 19/24/28 18/227/259 24/25/29
f 24/27/31 23/228/260 26/28/32
f 26/30/34 23/229/261 14/31/35
f 11/35/39 17/15/262 27/33/37
f 17/15/262 25/36/263 27/33/37
f 25/36/40 26/30/264 21/32/41
f 16/14/43 19/221/265 25/36/44
f 22/38/48 28/42/266 25/36/46
f 28/42/266 27/33/267 25/36/46
f 8/230/268 7/231/269 22/232/270
f 7/231/269 29/39/49 28/41/51
f 22/232/270 7/231/269 28/41/51
f 9/43/53 28/41/271 30/40/54
f 30/40/56 29/39/272 31/45/57
f 10/7/59 31/233/273 2/46/60
f 32/47/62 33/234/274 34/48/63
f 37/50/65 32/47/275 38/51/66
f 34/48/68 39/235/276 40/53/69
f 35/49/71 40/53/277 41/54/72
f 42/55/74 38/51/278 32/47/75
f 48/60/79 44/57/279 49/61/80
f 36/64/83 50/63/280 52/66/84
f 52/68/86 53/84/281 54/69/87
f 54/71/89 33/234/282 32/47/90
f 38/72/95 42/75/283 51/65/93
f 42/75/283 45/74/284 48/80/285
f 51/65/93 42/75/283 48/80/285
f 41/73/96 46/236/286 45/74/97
f 43/76/99 46/237/287 41/77/100
f 39/79/102 44/238/288 43/76/103
f 55/82/107 50/63/289 51/65/290
f 51/65/290 48/80/105 55/82/107
f 56/83/108 55/239/291 47/62/109
f 55/86/113 56/240/292 53/84/111
f 53/84/111 52/68/293 50/85/112
f 57/87/114 58/102/294 59/88/115
f 61/90/117 62/241/295 63/91/118
f 65/93/120 66/106/296 67/94/121
f 60/89/126 59/88/297 72/99/127
f 64/101/129 63/242/298 58/102/130
f 68/95/132 67/94/299 62/103/133
f 70/105/135 69/243/300 66/106/136
f 60/89/140 73/100/141 77/110/141
f 79/112/142 80/134/142 77/113/142
f 65/93/143 81/117/301 76/115/144
f 65/93/146 68/95/302 82/116/147
f 68/118/149 61/122/303 83/119/150
f 64/121/152 84/125/304 83/119/153
f 64/101/155 57/87/305 85/123/156
f 85/123/158 57/87/306 60/89/159
f 80/126/161 79/244/307 71/127/162
f 71/129/164 86/245/308 75/130/165
f 86/132/167 70/246/309 76/109/168
f 87/141/177 88/247/310 89/142/178
f 92/144/180 87/141/311 93/145/181
f 89/142/183 94/248/312 95/147/184
f 90/143/186 95/147/277 96/148/187
f 93/145/188 87/141/313 90/143/189
f 103/154/192 99/151/314 104/155/193
f 91/158/83 105/157/315 107/160/84
f 107/162/86 108/178/281 109/163/87
f 109/165/196 88/247/316 87/141/90
f 93/166/200 97/169/317 106/159/198
f 97/169/317 100/168/318 103/174/319
f 106/159/198 97/169/317 103/174/319
f 96/167/96 101/249/286 100/168/97
f 98/170/99 101/250/320 96/171/201
f 94/173/203 99/251/321 98/170/204
f 110/176/208 105/157/322 106/159/323
f 106/159/323 103/174/206 110/176/208
f 111/177/209 110/252/324 102/156/210
f 110/180/113 111/253/292 108/178/111
f 108/178/111 107/162/325 105/179/112
f 114/197/224 125/254/326 126/198/225
f 120/206/229 112/181/327 114/183/230
f 129/208/233 131/218/328 127/199/234
f 125/210/237 113/255/329 112/211/238
f 129/204/240 128/203/240 119/191/240
f 128/203/240 112/211/240 120/189/240
f 131/218/244 129/208/330 123/195/245
